<?xml version="1.0" encoding="UTF-8" standalone="no"?>
<!-- Created with Inkscape (http://www.inkscape.org/) -->
<svg
   xmlns:dc="http://purl.org/dc/elements/1.1/"
   xmlns:cc="http://creativecommons.org/ns#"
   xmlns:rdf="http://www.w3.org/1999/02/22-rdf-syntax-ns#"
   xmlns:svg="http://www.w3.org/2000/svg"
   xmlns="http://www.w3.org/2000/svg"
   xmlns:sodipodi="http://sodipodi.sourceforge.net/DTD/sodipodi-0.dtd"
   xmlns:inkscape="http://www.inkscape.org/namespaces/inkscape"
   width="1680"
   height="1050"
   id="svg2"
   sodipodi:version="0.32"
   inkscape:version="0.46"
   version="1.0"
   sodipodi:docname="dwm-wallpaper.svg"
   inkscape:output_extension="org.inkscape.output.svg.inkscape"
   inkscape:export-filename="/home/thayer/dev/artwork/dwm-wallpaper1.png"
   inkscape:export-xdpi="90"
   inkscape:export-ydpi="90">
  <defs
     id="defs4">
    <inkscape:perspective
       sodipodi:type="inkscape:persp3d"
       inkscape:vp_x="0 : 526.18109 : 1"
       inkscape:vp_y="0 : 1000 : 0"
       inkscape:vp_z="744.09448 : 526.18109 : 1"
       inkscape:persp3d-origin="372.04724 : 350.78739 : 1"
       id="perspective10" />
    <inkscape:perspective
       id="perspective2447"
       inkscape:persp3d-origin="372.04724 : 350.78739 : 1"
       inkscape:vp_z="744.09448 : 526.18109 : 1"
       inkscape:vp_y="0 : 1000 : 0"
       inkscape:vp_x="0 : 526.18109 : 1"
       sodipodi:type="inkscape:persp3d" />
  </defs>
  <sodipodi:namedview
     id="base"
     pagecolor="#ffffff"
     bordercolor="#666666"
     borderopacity="1.0"
     gridtolerance="10000"
     guidetolerance="10"
     objecttolerance="10"
     inkscape:pageopacity="0.0"
     inkscape:pageshadow="2"
     inkscape:zoom="1"
     inkscape:cx="1244.5654"
     inkscape:cy="400"
     inkscape:document-units="px"
     inkscape:current-layer="layer1"
     showgrid="false"
     inkscape:window-width="1087"
     inkscape:window-height="1031"
     inkscape:window-x="0"
     inkscape:window-y="15" />
  <metadata
     id="metadata7">
    <rdf:RDF>
      <cc:Work
         rdf:about="">
        <dc:format>image/svg+xml</dc:format>
        <dc:type
           rdf:resource="http://purl.org/dc/dcmitype/StillImage" />
      </cc:Work>
    </rdf:RDF>
  </metadata>
  <g
     inkscape:label="Layer 1"
     inkscape:groupmode="layer"
     id="layer1"
     transform="translate(-6,307.90552)">
    <rect
       style="opacity:1;fill:#ffffff;fill-opacity:1;fill-rule:nonzero;stroke:none;stroke-width:1px;stroke-linecap:butt;stroke-linejoin:miter;marker:none;marker-start:none;marker-mid:none;marker-end:none;stroke-miterlimit:4;stroke-dasharray:none;stroke-dashoffset:0;stroke-opacity:1;visibility:visible;display:inline;overflow:visible;enable-background:accumulate"
       id="rect2475"
       width="1680"
       height="1050"
       x="6"
       y="-307.90552" />
    <path
       style="fill:#222222;fill-opacity:1"
       d="M 1474.053,698.09448 L 1474.053,674.09448 L 1498.053,674.09448 L 1522.053,674.09448 L 1522.053,658.09448 L 1522.053,642.09448 L 1530.053,642.09448 L 1538.053,642.09448 L 1538.053,674.09448 L 1538.053,706.09448 L 1546.053,706.09448 L 1554.053,706.09448 L 1554.053,690.09448 L 1554.053,674.09448 L 1562.053,674.09448 L 1570.053,674.09448 L 1570.053,690.09448 L 1570.053,706.09448 L 1578.053,706.09448 L 1586.053,706.09448 L 1586.053,690.09448 L 1586.053,674.09448 L 1626.053,674.09448 L 1666.053,674.09448 L 1666.053,698.09448 L 1666.053,722.09448 L 1658.053,722.09448 L 1650.053,722.09448 L 1650.053,706.09448 L 1650.053,690.09448 L 1642.053,690.09448 L 1634.053,690.09448 L 1634.053,706.09448 L 1634.053,722.09448 L 1626.053,722.09448 L 1618.053,722.09448 L 1618.053,706.09448 L 1618.053,690.09448 L 1610.053,690.09448 L 1602.053,690.09448 L 1602.053,706.09448 L 1602.053,722.09448 L 1538.053,722.09448 L 1474.053,722.09448 L 1474.053,698.09448 z M 1522.053,698.09448 L 1522.053,690.09448 L 1506.053,690.09448 L 1490.053,690.09448 L 1490.053,698.09448 L 1490.053,706.09448 L 1506.053,706.09448 L 1522.053,706.09448 L 1522.053,698.09448 z"
       id="path2451" />
  </g>
</svg>
